# xmcd
#
# Track frame offsets:
#	150
#	8250
#	24375
#	37650
#	54375
#	63900
#	80025
#	106125
#	118650
#	134250
#	152700
#	168300
#
# Disc length: 2405 seconds
#
# Revision: 1
# Processed by: cddbd v1.5.1PL0 Copyright (c) Steve Scherf et al.
# Submitted via: audiograbber 1.83.01
#
DISCID=8309630c
DTITLE=Blues Brothers - Made In America
DYEAR=1990
DGENRE=Blues
TTITLE0=Soul Finger 
TTITLE1=Who's Making Love  
TTITLE2=Do You Love Me 
TTITLE3=Guilty   
TTITLE4=Perry Mason Theme    
TTITLE5=Riot In Cell Block Number Nine   
TTITLE6=Green Onions   
TTITLE7=I Ain't Got You   
TTITLE8=From The Bottom   
TTITLE9=Going Back To Miami   
TTITLE10=Expressway To Your Heart
TTITLE11=Excusez Moi Mon Cherie
EXTD=
EXTT0=
EXTT1=
EXTT2=
EXTT3=
EXTT4=
EXTT5=
EXTT6=
EXTT7=
EXTT8=
EXTT9=
EXTT10=
EXTT11=
PLAYORDER=
